<?xml version="1.0" encoding="utf-8"?>
<svg xmlns="http://www.w3.org/2000/svg" version="1.1" width="1000" height="800">

<line x1="0" y1="0" x2="1000" y2="0" stroke="lightgrey" />
<text x="5" y="-5" stroke="#ffffff" stroke-opacity="1" font-size="18px" stroke-width="8" text-anchor="middle" >0</text>
<text x="5" y="-5" fill="lightgrey" font-size="18px" text-anchor="middle" >0</text>
<line x1="0" y1="100" x2="1000" y2="100" stroke="lightgrey" />
<text x="5" y="95" stroke="#ffffff" stroke-opacity="1" font-size="18px" stroke-width="8" text-anchor="middle" >100</text>
<text x="5" y="95" fill="lightgrey" font-size="18px" text-anchor="middle" >100</text>
<line x1="0" y1="200" x2="1000" y2="200" stroke="lightgrey" />
<text x="5" y="195" stroke="#ffffff" stroke-opacity="1" font-size="18px" stroke-width="8" text-anchor="middle" >200</text>
<text x="5" y="195" fill="lightgrey" font-size="18px" text-anchor="middle" >200</text>
<line x1="0" y1="300" x2="1000" y2="300" stroke="lightgrey" />
<text x="5" y="295" stroke="#ffffff" stroke-opacity="1" font-size="18px" stroke-width="8" text-anchor="middle" >300</text>
<text x="5" y="295" fill="lightgrey" font-size="18px" text-anchor="middle" >300</text>
<line x1="0" y1="400" x2="1000" y2="400" stroke="lightgrey" />
<text x="5" y="395" stroke="#ffffff" stroke-opacity="1" font-size="18px" stroke-width="8" text-anchor="middle" >400</text>
<text x="5" y="395" fill="lightgrey" font-size="18px" text-anchor="middle" >400</text>
<line x1="0" y1="500" x2="1000" y2="500" stroke="lightgrey" />
<text x="5" y="495" stroke="#ffffff" stroke-opacity="1" font-size="18px" stroke-width="8" text-anchor="middle" >500</text>
<text x="5" y="495" fill="lightgrey" font-size="18px" text-anchor="middle" >500</text>
<line x1="0" y1="600" x2="1000" y2="600" stroke="lightgrey" />
<text x="5" y="595" stroke="#ffffff" stroke-opacity="1" font-size="18px" stroke-width="8" text-anchor="middle" >600</text>
<text x="5" y="595" fill="lightgrey" font-size="18px" text-anchor="middle" >600</text>
<line x1="0" y1="700" x2="1000" y2="700" stroke="lightgrey" />
<text x="5" y="695" stroke="#ffffff" stroke-opacity="1" font-size="18px" stroke-width="8" text-anchor="middle" >700</text>
<text x="5" y="695" fill="lightgrey" font-size="18px" text-anchor="middle" >700</text>
<line x1="0" y1="800" x2="1000" y2="800" stroke="lightgrey" />
<text x="5" y="795" stroke="#ffffff" stroke-opacity="1" font-size="18px" stroke-width="8" text-anchor="middle" >800</text>
<text x="5" y="795" fill="lightgrey" font-size="18px" text-anchor="middle" >800</text>
<line x1="0" y1="0" x2="0" y2="800" stroke="lightgrey" />
<text x="5" y="15" stroke="#ffffff" stroke-opacity="1" font-size="18px" stroke-width="8" text-anchor="middle" >0</text>
<text x="5" y="15" fill="lightgrey" font-size="18px" text-anchor="middle" >0</text>
<line x1="100" y1="0" x2="100" y2="800" stroke="lightgrey" />
<text x="105" y="15" stroke="#ffffff" stroke-opacity="1" font-size="18px" stroke-width="8" text-anchor="middle" >100</text>
<text x="105" y="15" fill="lightgrey" font-size="18px" text-anchor="middle" >100</text>
<line x1="200" y1="0" x2="200" y2="800" stroke="lightgrey" />
<text x="205" y="15" stroke="#ffffff" stroke-opacity="1" font-size="18px" stroke-width="8" text-anchor="middle" >200</text>
<text x="205" y="15" fill="lightgrey" font-size="18px" text-anchor="middle" >200</text>
<line x1="300" y1="0" x2="300" y2="800" stroke="lightgrey" />
<text x="305" y="15" stroke="#ffffff" stroke-opacity="1" font-size="18px" stroke-width="8" text-anchor="middle" >300</text>
<text x="305" y="15" fill="lightgrey" font-size="18px" text-anchor="middle" >300</text>
<line x1="400" y1="0" x2="400" y2="800" stroke="lightgrey" />
<text x="405" y="15" stroke="#ffffff" stroke-opacity="1" font-size="18px" stroke-width="8" text-anchor="middle" >400</text>
<text x="405" y="15" fill="lightgrey" font-size="18px" text-anchor="middle" >400</text>
<line x1="500" y1="0" x2="500" y2="800" stroke="lightgrey" />
<text x="505" y="15" stroke="#ffffff" stroke-opacity="1" font-size="18px" stroke-width="8" text-anchor="middle" >500</text>
<text x="505" y="15" fill="lightgrey" font-size="18px" text-anchor="middle" >500</text>
<line x1="600" y1="0" x2="600" y2="800" stroke="lightgrey" />
<text x="605" y="15" stroke="#ffffff" stroke-opacity="1" font-size="18px" stroke-width="8" text-anchor="middle" >600</text>
<text x="605" y="15" fill="lightgrey" font-size="18px" text-anchor="middle" >600</text>
<line x1="700" y1="0" x2="700" y2="800" stroke="lightgrey" />
<text x="705" y="15" stroke="#ffffff" stroke-opacity="1" font-size="18px" stroke-width="8" text-anchor="middle" >700</text>
<text x="705" y="15" fill="lightgrey" font-size="18px" text-anchor="middle" >700</text>
<line x1="800" y1="0" x2="800" y2="800" stroke="lightgrey" />
<text x="805" y="15" stroke="#ffffff" stroke-opacity="1" font-size="18px" stroke-width="8" text-anchor="middle" >800</text>
<text x="805" y="15" fill="lightgrey" font-size="18px" text-anchor="middle" >800</text>
<line x1="900" y1="0" x2="900" y2="800" stroke="lightgrey" />
<text x="905" y="15" stroke="#ffffff" stroke-opacity="1" font-size="18px" stroke-width="8" text-anchor="middle" >900</text>
<text x="905" y="15" fill="lightgrey" font-size="18px" text-anchor="middle" >900</text>
<line x1="1000" y1="0" x2="1000" y2="800" stroke="lightgrey" />
<text x="1005" y="15" stroke="#ffffff" stroke-opacity="1" font-size="18px" stroke-width="8" text-anchor="middle" >1000</text>
<text x="1005" y="15" fill="lightgrey" font-size="18px" text-anchor="middle" >1000</text>
<line x1="594" y1="447" x2="359" y2="494" stroke="black" />
<line x1="594" y1="447" x2="359" y2="494" stroke="black" />
<line x1="594" y1="447" x2="453" y2="400" stroke="black" />
<line x1="594" y1="447" x2="359" y2="494" stroke="black" />
<line x1="594" y1="447" x2="359" y2="494" stroke="black" />
<line x1="594" y1="447" x2="359" y2="494" stroke="black" />
<line x1="594" y1="447" x2="359" y2="494" stroke="black" />
<line x1="594" y1="447" x2="359" y2="494" stroke="black" />
<line x1="594" y1="447" x2="359" y2="494" stroke="black" />
<line x1="594" y1="447" x2="359" y2="494" stroke="black" />
<line x1="594" y1="447" x2="359" y2="494" stroke="black" />
<line x1="594" y1="447" x2="359" y2="494" stroke="black" />
<line x1="594" y1="447" x2="359" y2="494" stroke="black" />
<line x1="594" y1="447" x2="359" y2="494" stroke="black" />
<line x1="594" y1="447" x2="359" y2="494" stroke="black" />
<line x1="594" y1="447" x2="359" y2="494" stroke="black" />
<line x1="594" y1="447" x2="359" y2="494" stroke="black" />
<line x1="594" y1="447" x2="359" y2="494" stroke="black" />
<line x1="594" y1="447" x2="359" y2="494" stroke="black" />
<line x1="594" y1="447" x2="359" y2="494" stroke="black" />
<line x1="594" y1="447" x2="359" y2="494" stroke="black" />
<line x1="594" y1="447" x2="359" y2="494" stroke="black" />
<line x1="594" y1="447" x2="359" y2="494" stroke="black" />
<line x1="594" y1="447" x2="359" y2="494" stroke="black" />
<line x1="594" y1="447" x2="359" y2="494" stroke="black" />
<line x1="594" y1="447" x2="359" y2="494" stroke="black" />
<line x1="594" y1="447" x2="359" y2="494" stroke="black" />
<line x1="594" y1="447" x2="359" y2="494" stroke="black" />
<line x1="594" y1="447" x2="359" y2="494" stroke="black" />
<line x1="594" y1="447" x2="359" y2="494" stroke="black" />
<line x1="594" y1="447" x2="359" y2="494" stroke="black" />
<line x1="594" y1="447" x2="359" y2="494" stroke="black" />
<line x1="594" y1="447" x2="359" y2="494" stroke="black" />
<line x1="594" y1="447" x2="359" y2="494" stroke="black" />
<line x1="594" y1="447" x2="359" y2="494" stroke="black" />
<line x1="594" y1="447" x2="359" y2="494" stroke="black" />
<line x1="594" y1="447" x2="359" y2="494" stroke="black" />
<line x1="594" y1="447" x2="359" y2="494" stroke="black" />
<line x1="594" y1="447" x2="359" y2="494" stroke="black" />
<line x1="594" y1="447" x2="359" y2="494" stroke="black" />
<line x1="594" y1="447" x2="359" y2="494" stroke="black" />
<line x1="594" y1="447" x2="359" y2="494" stroke="black" />
<line x1="594" y1="447" x2="359" y2="494" stroke="black" />
<line x1="594" y1="447" x2="359" y2="494" stroke="black" />
<line x1="594" y1="447" x2="359" y2="494" stroke="black" />
<line x1="594" y1="447" x2="359" y2="494" stroke="black" />
<line x1="594" y1="447" x2="359" y2="494" stroke="black" />
<line x1="594" y1="447" x2="359" y2="494" stroke="black" />
<line x1="594" y1="447" x2="359" y2="494" stroke="black" />
<line x1="594" y1="447" x2="359" y2="494" stroke="black" />
<line x1="594" y1="447" x2="359" y2="494" stroke="black" />
<line x1="594" y1="447" x2="359" y2="494" stroke="black" />
<line x1="594" y1="447" x2="359" y2="494" stroke="black" />
<line x1="594" y1="447" x2="359" y2="494" stroke="black" />
<line x1="594" y1="447" x2="359" y2="494" stroke="black" />
<line x1="594" y1="447" x2="359" y2="494" stroke="black" />
<line x1="594" y1="447" x2="359" y2="494" stroke="black" />
<line x1="594" y1="447" x2="359" y2="494" stroke="black" />
<line x1="594" y1="447" x2="359" y2="494" stroke="black" />
<line x1="594" y1="447" x2="359" y2="494" stroke="black" />
<line x1="594" y1="447" x2="359" y2="494" stroke="black" />
<line x1="594" y1="447" x2="359" y2="494" stroke="black" />
<line x1="594" y1="447" x2="359" y2="494" stroke="black" />
<line x1="594" y1="447" x2="359" y2="494" stroke="black" />
<line x1="594" y1="447" x2="359" y2="494" stroke="black" />
<line x1="594" y1="447" x2="359" y2="494" stroke="black" />
<line x1="594" y1="447" x2="359" y2="494" stroke="black" />
<line x1="594" y1="447" x2="359" y2="494" stroke="black" />
<line x1="594" y1="447" x2="359" y2="494" stroke="black" />
<line x1="594" y1="447" x2="359" y2="494" stroke="black" />
<line x1="594" y1="447" x2="359" y2="494" stroke="black" />
<line x1="594" y1="447" x2="359" y2="494" stroke="black" />
<line x1="594" y1="447" x2="359" y2="494" stroke="black" />
<line x1="594" y1="447" x2="359" y2="494" stroke="black" />
<line x1="594" y1="447" x2="359" y2="494" stroke="black" />
<line x1="594" y1="447" x2="359" y2="494" stroke="black" />
<line x1="594" y1="447" x2="359" y2="494" stroke="black" />
<line x1="594" y1="447" x2="359" y2="494" stroke="black" />
<line x1="594" y1="447" x2="359" y2="494" stroke="black" />
<line x1="594" y1="447" x2="359" y2="494" stroke="black" />
<line x1="594" y1="447" x2="359" y2="494" stroke="black" />
<line x1="594" y1="447" x2="359" y2="494" stroke="black" />
<line x1="594" y1="447" x2="359" y2="494" stroke="black" />
<line x1="594" y1="447" x2="359" y2="494" stroke="black" />
<line x1="594" y1="447" x2="359" y2="494" stroke="black" />
<line x1="594" y1="447" x2="359" y2="494" stroke="black" />
<line x1="594" y1="447" x2="359" y2="494" stroke="black" />
<circle cx="594" cy="447" r="5" fill="rgb(170,0,100)" />
<text x="589" y="437" stroke="#ffffff" stroke-opacity="1" font-size="18px" stroke-width="8" text-anchor="middle" >PAR</text>
<text x="589" y="437" fill="balck" font-size="18px" text-anchor="middle" >PAR</text>
<circle cx="782" cy="776" r="5" fill="rgb(170,0,100)" />
<text x="777" y="766" stroke="#ffffff" stroke-opacity="1" font-size="18px" stroke-width="8" text-anchor="middle" >AJA</text>
<text x="777" y="766" fill="balck" font-size="18px" text-anchor="middle" >AJA</text>
<circle cx="829" cy="729" r="5" fill="rgb(170,0,100)" />
<text x="824" y="719" stroke="#ffffff" stroke-opacity="1" font-size="18px" stroke-width="8" text-anchor="middle" >BIA</text>
<text x="824" y="719" fill="balck" font-size="18px" text-anchor="middle" >BIA</text>
<circle cx="406" cy="682" r="5" fill="rgb(170,0,100)" />
<text x="401" y="672" stroke="#ffffff" stroke-opacity="1" font-size="18px" stroke-width="8" text-anchor="middle" >BIQ</text>
<text x="401" y="672" fill="balck" font-size="18px" text-anchor="middle" >BIQ</text>
<circle cx="453" cy="635" r="5" fill="rgb(170,0,100)" />
<text x="448" y="625" stroke="#ffffff" stroke-opacity="1" font-size="18px" stroke-width="8" text-anchor="middle" >BOD</text>
<text x="448" y="625" fill="balck" font-size="18px" text-anchor="middle" >BOD</text>
<circle cx="359" cy="494" r="5" fill="rgb(170,0,100)" />
<text x="354" y="484" stroke="#ffffff" stroke-opacity="1" font-size="18px" stroke-width="8" text-anchor="middle" >BES</text>
<text x="354" y="484" fill="balck" font-size="18px" text-anchor="middle" >BES</text>
<circle cx="500" cy="447" r="5" fill="rgb(170,0,100)" />
<text x="495" y="437" stroke="#ffffff" stroke-opacity="1" font-size="18px" stroke-width="8" text-anchor="middle" >CFR</text>
<text x="495" y="437" fill="balck" font-size="18px" text-anchor="middle" >CFR</text>
<circle cx="782" cy="729" r="5" fill="rgb(170,0,100)" />
<text x="777" y="719" stroke="#ffffff" stroke-opacity="1" font-size="18px" stroke-width="8" text-anchor="middle" >CLY</text>
<text x="777" y="719" fill="balck" font-size="18px" text-anchor="middle" >CLY</text>
<circle cx="594" cy="588" r="5" fill="rgb(170,0,100)" />
<text x="589" y="578" stroke="#ffffff" stroke-opacity="1" font-size="18px" stroke-width="8" text-anchor="middle" >CFE</text>
<text x="589" y="578" fill="balck" font-size="18px" text-anchor="middle" >CFE</text>
<circle cx="829" cy="776" r="5" fill="rgb(170,0,100)" />
<text x="824" y="766" stroke="#ffffff" stroke-opacity="1" font-size="18px" stroke-width="8" text-anchor="middle" >FSC</text>
<text x="824" y="766" fill="balck" font-size="18px" text-anchor="middle" >FSC</text>
<circle cx="453" cy="588" r="5" fill="rgb(170,0,100)" />
<text x="448" y="578" stroke="#ffffff" stroke-opacity="1" font-size="18px" stroke-width="8" text-anchor="middle" >LRH</text>
<text x="448" y="578" fill="balck" font-size="18px" text-anchor="middle" >LRH</text>
<circle cx="594" cy="400" r="5" fill="rgb(170,0,100)" />
<text x="589" y="390" stroke="#ffffff" stroke-opacity="1" font-size="18px" stroke-width="8" text-anchor="middle" >LIL</text>
<text x="589" y="390" fill="balck" font-size="18px" text-anchor="middle" >LIL</text>
<circle cx="359" cy="494" r="5" fill="rgb(170,0,100)" />
<text x="354" y="484" stroke="#ffffff" stroke-opacity="1" font-size="18px" stroke-width="8" text-anchor="middle" >LRT</text>
<text x="354" y="484" fill="balck" font-size="18px" text-anchor="middle" >LRT</text>
<circle cx="594" cy="588" r="5" fill="rgb(170,0,100)" />
<text x="589" y="578" stroke="#ffffff" stroke-opacity="1" font-size="18px" stroke-width="8" text-anchor="middle" >LYS</text>
<text x="589" y="578" fill="balck" font-size="18px" text-anchor="middle" >LYS</text>
<circle cx="641" cy="682" r="5" fill="rgb(170,0,100)" />
<text x="636" y="672" stroke="#ffffff" stroke-opacity="1" font-size="18px" stroke-width="8" text-anchor="middle" >MRS</text>
<text x="636" y="672" fill="balck" font-size="18px" text-anchor="middle" >MRS</text>
<circle cx="735" cy="447" r="5" fill="rgb(170,0,100)" />
<text x="730" y="437" stroke="#ffffff" stroke-opacity="1" font-size="18px" stroke-width="8" text-anchor="middle" >ETZ</text>
<text x="730" y="437" fill="balck" font-size="18px" text-anchor="middle" >ETZ</text>
<circle cx="594" cy="682" r="5" fill="rgb(170,0,100)" />
<text x="589" y="672" stroke="#ffffff" stroke-opacity="1" font-size="18px" stroke-width="8" text-anchor="middle" >MPL</text>
<text x="589" y="672" fill="balck" font-size="18px" text-anchor="middle" >MPL</text>
<circle cx="406" cy="541" r="5" fill="rgb(170,0,100)" />
<text x="401" y="531" stroke="#ffffff" stroke-opacity="1" font-size="18px" stroke-width="8" text-anchor="middle" >NTE</text>
<text x="401" y="531" fill="balck" font-size="18px" text-anchor="middle" >NTE</text>
<circle cx="735" cy="682" r="5" fill="rgb(170,0,100)" />
<text x="730" y="672" stroke="#ffffff" stroke-opacity="1" font-size="18px" stroke-width="8" text-anchor="middle" >NCE</text>
<text x="730" y="672" fill="balck" font-size="18px" text-anchor="middle" >NCE</text>
<circle cx="500" cy="729" r="5" fill="rgb(170,0,100)" />
<text x="495" y="719" stroke="#ffffff" stroke-opacity="1" font-size="18px" stroke-width="8" text-anchor="middle" >PUF</text>
<text x="495" y="719" fill="balck" font-size="18px" text-anchor="middle" >PUF</text>
<circle cx="641" cy="682" r="5" fill="rgb(170,0,100)" />
<text x="636" y="672" stroke="#ffffff" stroke-opacity="1" font-size="18px" stroke-width="8" text-anchor="middle" >PGF</text>
<text x="636" y="672" fill="balck" font-size="18px" text-anchor="middle" >PGF</text>
<circle cx="359" cy="494" r="5" fill="rgb(170,0,100)" />
<text x="354" y="484" stroke="#ffffff" stroke-opacity="1" font-size="18px" stroke-width="8" text-anchor="middle" >UIP</text>
<text x="354" y="484" fill="balck" font-size="18px" text-anchor="middle" >UIP</text>
<circle cx="453" cy="400" r="5" fill="rgb(170,0,100)" />
<text x="448" y="390" stroke="#ffffff" stroke-opacity="1" font-size="18px" stroke-width="8" text-anchor="middle" >RNE</text>
<text x="448" y="390" fill="balck" font-size="18px" text-anchor="middle" >RNE</text>
<circle cx="782" cy="494" r="5" fill="rgb(170,0,100)" />
<text x="777" y="484" stroke="#ffffff" stroke-opacity="1" font-size="18px" stroke-width="8" text-anchor="middle" >SXB</text>
<text x="777" y="484" fill="balck" font-size="18px" text-anchor="middle" >SXB</text>
<circle cx="547" cy="682" r="5" fill="rgb(170,0,100)" />
<text x="542" y="672" stroke="#ffffff" stroke-opacity="1" font-size="18px" stroke-width="8" text-anchor="middle" >TLS</text>
<text x="542" y="672" fill="balck" font-size="18px" text-anchor="middle" >TLS</text>


</svg>
